<?xml version='1.0' encoding='iso-8859-1' ?>
<svg
  fill="#0bb5f4"
  version="1.1"
  xmlns="http://www.w3.org/2000/svg"
  viewBox="0 0 490 490"
  xmlns:xlink="http://www.w3.org/1999/xlink"
  enable-background="new 0 0 490 490"
>
  <path
    d="M464.011,106.815C448.62,91.181,428.529,81.781,406.94,80c-4.963-20.315-16.007-38.816-31.869-53.064  C355.733,9.566,330.823,0,304.929,0H104.978C47.093,0,0,46.945,0,104.647c0,57.703,47.093,104.648,104.978,104.648h24.925  c7.645,15.702,19.724,28.881,34.601,37.906l30.015,82.624h-87.073c-4.506,0-8.774,2.026-11.623,5.518  c-2.849,3.491-3.977,8.079-3.072,12.493l20.003,97.631C118.295,472.52,136.82,490,159.949,490h169.993  c23.131,0,41.656-17.48,47.195-44.532l20.002-97.631c0.905-4.415-0.224-9.002-3.072-12.494c-2.849-3.491-7.116-5.517-11.622-5.517  h-87.072l25.255-69.524h78.79c49.947,0,90.583-40.512,90.583-90.308C490,146.277,480.771,123.839,464.011,106.815z M364.06,359.826  l-16.313,79.623C346.76,444.27,342.559,460,329.941,460H159.949c-12.615,0-16.818-15.731-17.806-20.553l-16.313-79.621h89.75  c0.231,0.006,0.464,0.006,0.695,0h57.344c0.23,0.006,0.459,0.006,0.689,0H364.06z M200.961,259.7  c3.44,0.397,6.943,0.602,10.489,0.602h77.259l-25.255,69.524h-37.019L200.961,259.7z M399.417,230.301H211.45  c-26.288,0-48.719-16.755-57.084-40.099c-0.148-0.525-0.325-1.038-0.527-1.538c-1.928-5.881-2.971-12.158-2.971-18.671  c0-33.253,27.177-60.307,60.583-60.307h93.477c8.284,0,15-6.716,15-15s-6.716-15-15-15H211.45  c-49.947,0-90.583,40.512-90.583,90.308c0,3.14,0.162,6.242,0.477,9.3h-16.366C63.635,179.295,30,145.809,30,104.647  C30,63.487,63.635,30,104.978,30h199.951c38.229,0,70.262,28.529,74.51,66.36c0.924,8.232,8.344,14.16,16.58,13.233  c0.548-0.062,3.625,0.088,4.679,0.11C433.396,110.387,460,137.434,460,169.995C460,203.248,432.822,230.301,399.417,230.301z"
  />
</svg>
